<svg width="29" height="31" fill="none" xmlns="http://www.w3.org/2000/svg"><g clip-path="url(#clip0)" fill="#fff"><path d="M20.7762 18.4731c-1.706 0-3.0885 1.4784-3.0885 3.3011 0 1.8241 1.383 3.3019 3.0885 3.3019 1.7056 0 3.0881-1.4783 3.0881-3.3019 0-1.8232-1.383-3.3011-3.0881-3.3011zm0 5.0133c-.884 0-1.6009-.7663-1.6009-1.7113 0-.946.7169-1.7118 1.6009-1.7118.8841 0 1.6014.7658 1.6014 1.7118 0 .945-.7173 1.7113-1.6014 1.7113zM11.6068-.0101318c-1.76039 0-3.18728 1.5248118-3.18728 3.4070918s1.42644 3.40661 3.18728 3.40661c1.7608 0 3.1873-1.52384 3.1873-3.40661-.0005-1.88276-1.4269-3.4070918-3.1873-3.4070918zM11.6063 5.46573c-1.0689 0-1.93525-.92613-1.93525-2.06925 0-1.14264.86635-2.06925 1.93525-2.06925 1.0694 0 1.9358.92661 1.9358 2.06925 0 1.14312-.8664 2.06925-1.9358 2.06925zM8.22693 17.6105c-1.29367 0-2.3413 1.1198-2.3413 2.5027 0 1.3824 1.04763 2.5028 2.3413 2.5028 1.29367 0 2.34127-1.1204 2.34127-2.5028s-1.0476-2.5027-2.34127-2.5027zM8.00001 19.5c-.45901 0 1.15818 1.1039 1.15818.6132 0-.4897-1.61719.3868-1.15818.3868.45856 0 1.05704-.8774 1.05704-.3877 0 .4906-.59848-.6123-1.05704-.6123zM18.5002 9.76265s3.04-.83845 6.1779 1.49385c.9071.7599 1.7654 1.3364 1.1523 2.1225-.3435.3405-.6371.6568-1.716-.5241-1.054-.76-2.7197-1.8983-5.6142-1.4415-1.1278.2364-1.9616.5507-3.5557 2.1492-1.5936 1.5984-3.9721 2.7251-6.49735 2.4892-2.52526-.2354-3.84884-1.2579-5.24628-2.542-.29407-.4195-.29407-.8651-.12279-1.1272.17128-.262.83329-.5241 1.20123-.1312.36794.3933 2.10839 1.9656 3.82438 2.0702 1.71643.1046 3.43291.2097 5.73701-1.9656 2.306-2.1739 3.4583-2.3313 4.6595-2.59335z"/><mask id="a"><path d="M28.6457 26.8156V8.15743c0-.57834-.3739-.65003-.5239-.65535h-.5056c-.4935 0-.5365.55654-.5379.73867V8.30129c.0014 3.60861.0091 18.25321-.0018 18.53991-.0123.328-.0734 1.1664-.8211 1.8872-.8084.695-1.6176.603-1.6176.603s-20.17724 0-20.65529-.0266c-.37972-.0654-1.04173-.2098-1.60587-1.009-.56369-.7992-.45313-1.8474-.45313-1.8474V8.31486c0-.83846-.67425-.8123-.67425-.8123H.942042c-.536047 0-.585438.58803-.588156.77645V26.816c0 1.3369.453578 2.3977 1.547874 3.3369 1.09384.9387 2.37483.8564 2.37483.8564s19.72361 0 20.58181-.0024c.8583-.0025 1.9856-.4166 2.9159-1.5554.9294-1.1387.8714-2.6359.8714-2.6359z"/></mask><path d="M28.6457 26.8156V8.15743c0-.57834-.3739-.65003-.5239-.65535h-.5056c-.4935 0-.5365.55654-.5379.73867V8.30129c.0014 3.60861.0091 18.25321-.0018 18.53991-.0123.328-.0734 1.1664-.8211 1.8872-.8084.695-1.6176.603-1.6176.603s-20.17724 0-20.65529-.0266c-.37972-.0654-1.04173-.2098-1.60587-1.009-.56369-.7992-.45313-1.8474-.45313-1.8474V8.31486c0-.83846-.67425-.8123-.67425-.8123H.942042c-.536047 0-.585438.58803-.588156.77645V26.816c0 1.3369.453578 2.3977 1.547874 3.3369 1.09384.9387 2.37483.8564 2.37483.8564s19.72361 0 20.58181-.0024c.8583-.0025 1.9856-.4166 2.9159-1.5554.9294-1.1387.8714-2.6359.8714-2.6359z"/></g><defs><clipPath id="clip0"><path fill="#fff" d="M0 0h29v31H0z"/></clipPath></defs></svg>